<?xml version="1.0" encoding="utf-8"?>
<!-- Generator: Adobe Illustrator 26.0.1, SVG Export Plug-In . SVG Version: 6.00 Build 0)  -->
<svg version="1.1" id="Layer_1" xmlns="http://www.w3.org/2000/svg" xmlns:xlink="http://www.w3.org/1999/xlink" x="0px" y="0px"
	 viewBox="0 0 125.42 125.42" style="enable-background:new 0 0 125.42 125.42;" xml:space="preserve">
<style type="text/css">
	.st0{fill:#F15A24;}
	.st1{fill:#FFFFFF;}
</style>
<g>
	<circle class="st0" cx="62.71" cy="62.71" r="62.71"/>
	<path class="st1" d="M91.62,75.89c1.24-3.5,1.92-6.4,2.05-8.7l-0.06-0.02c0.16-0.22,0.32-0.43,0.47-0.66
		c2.22-3.24,3.68-6.55,4.37-9.91c0.69-3.36,0.67-6.67-0.05-9.92c-0.73-3.24-2.16-6.33-4.32-9.26c-2.15-2.93-4.93-5.56-8.34-7.9
		c-3.41-2.34-6.87-3.94-10.39-4.82c-3.52-0.88-6.91-1.06-10.17-0.55c-3.26,0.51-6.34,1.7-9.23,3.56c-2.89,1.86-5.41,4.35-7.56,7.49
		c-0.32,0.47-0.62,0.95-0.91,1.42l0,0c-0.52,0.23-1.3,0.63-2.35,1.21c-1.05,0.58-2.24,1.4-3.57,2.44c-1.33,1.04-2.76,2.34-4.3,3.9
		c-1.54,1.55-3.05,3.42-4.53,5.58c-2.57,3.75-4.36,7.63-5.37,11.64c-1.01,4.01-1.17,7.96-0.46,11.85c0.7,3.89,2.26,7.64,4.68,11.25
		c2.41,3.61,5.74,6.87,9.98,9.77c8.53,5.84,16.6,8.17,24.22,6.99c7.62-1.19,14.29-5.94,19.99-14.27
		C88.43,83.08,90.38,79.39,91.62,75.89z M66.65,38.19c3.21-0.02,6.71,1.26,10.5,3.87c3.79,2.6,6.29,5.42,7.48,8.46
		c1.19,3.04,0.82,5.96-1.1,8.76c-1.92,2.8-4.52,4.21-7.81,4.23c-3.28,0.01-6.82-1.28-10.61-3.88c-3.79-2.6-6.25-5.41-7.37-8.44
		c-1.12-3.03-0.71-5.94,1.21-8.75C60.87,39.63,63.44,38.22,66.65,38.19z M70.32,84.86c-2.15,1.28-4.36,2-6.63,2.14
		c-2.27,0.14-4.61-0.22-7.01-1.11c-2.4-0.88-4.78-2.14-7.15-3.76c-2.96-2.03-5.2-4.14-6.73-6.35c-1.53-2.21-2.5-4.41-2.91-6.61
		c-0.41-2.2-0.33-4.35,0.24-6.46c0.57-2.11,1.47-4.04,2.68-5.82c0.46-0.67,0.93-1.31,1.4-1.92c0.69,3.19,2.05,6.25,4.08,9.19
		c2.07,2.99,4.81,5.66,8.22,8c3.41,2.34,6.89,3.95,10.43,4.85c3.53,0.89,6.92,1.09,10.19,0.61c-0.28,0.43-0.57,0.88-0.88,1.33
		C74.45,81.61,72.46,83.58,70.32,84.86z"/>
</g>
<g>
</g>
<g>
</g>
<g>
</g>
<g>
</g>
<g>
</g>
</svg>
