<?xml version="1.0" encoding="utf-8"?>
<!-- Generator: Adobe Illustrator 26.0.1, SVG Export Plug-In . SVG Version: 6.00 Build 0)  -->
<svg version="1.1" id="Layer_1" xmlns="http://www.w3.org/2000/svg" xmlns:xlink="http://www.w3.org/1999/xlink" x="0px" y="0px"
	 viewBox="0 0 543.9 119.71" style="enable-background:new 0 0 543.9 119.71;" xml:space="preserve">
<style type="text/css">
	.st0{fill:#F15A24;}
	.st1{fill:#FFFFFF;}
</style>
<g>
	<g>
		<circle class="st0" cx="59.86" cy="59.86" r="59.86"/>
		<path class="st1" d="M87.45,72.44c1.18-3.34,1.83-6.1,1.96-8.3l-0.06-0.02c0.15-0.21,0.3-0.41,0.45-0.63
			c2.12-3.1,3.51-6.25,4.17-9.46c0.66-3.21,0.64-6.37-0.05-9.46c-0.69-3.1-2.07-6.04-4.12-8.84c-2.05-2.8-4.71-5.31-7.96-7.54
			c-3.25-2.23-6.56-3.76-9.92-4.6c-3.36-0.84-6.6-1.01-9.71-0.52c-3.11,0.49-6.05,1.62-8.81,3.39c-2.76,1.77-5.16,4.16-7.21,7.15
			c-0.31,0.45-0.59,0.9-0.87,1.36l0,0c-0.49,0.22-1.24,0.6-2.25,1.16c-1,0.56-2.14,1.33-3.41,2.33c-1.27,1-2.64,2.24-4.1,3.72
			c-1.47,1.48-2.91,3.26-4.33,5.33c-2.45,3.58-4.16,7.28-5.12,11.11c-0.97,3.83-1.11,7.6-0.44,11.31c0.67,3.71,2.16,7.29,4.46,10.73
			c2.3,3.45,5.48,6.56,9.53,9.33c8.14,5.58,15.84,7.8,23.12,6.67c7.27-1.13,13.64-5.67,19.08-13.62
			C84.4,79.3,86.27,75.77,87.45,72.44z M63.61,36.46c3.06-0.02,6.4,1.21,10.03,3.69c3.62,2.48,6,5.17,7.14,8.07
			c1.14,2.9,0.79,5.69-1.05,8.36c-1.83,2.68-4.32,4.02-7.45,4.03c-3.13,0.01-6.51-1.22-10.13-3.7c-3.62-2.48-5.96-5.17-7.03-8.06
			c-1.07-2.89-0.68-5.67,1.15-8.35C58.1,37.83,60.55,36.48,63.61,36.46z M67.12,81c-2.05,1.22-4.16,1.9-6.33,2.04
			c-2.17,0.14-4.4-0.21-6.69-1.06c-2.29-0.84-4.56-2.04-6.82-3.59c-2.82-1.93-4.96-3.95-6.42-6.06c-1.46-2.11-2.39-4.21-2.78-6.31
			c-0.39-2.1-0.31-4.16,0.23-6.17c0.55-2.01,1.4-3.86,2.56-5.55c0.44-0.64,0.88-1.25,1.33-1.83c0.66,3.04,1.96,5.97,3.89,8.77
			c1.98,2.86,4.59,5.4,7.84,7.63c3.25,2.23,6.57,3.77,9.96,4.63c3.37,0.85,6.61,1.04,9.73,0.58c-0.26,0.42-0.54,0.84-0.84,1.27
			C71.06,77.89,69.16,79.78,67.12,81z"/>
	</g>
	<g>
		<path d="M171.88,88.3c-8.11,0-14.29-2.26-18.54-6.77s-6.37-10.92-6.37-19.22c0-4.13,0.65-7.81,1.94-11.05s3.07-5.98,5.33-8.21
			c2.26-2.23,4.94-3.92,8.06-5.08c3.12-1.15,6.5-1.73,10.15-1.73c2.11,0,4.03,0.16,5.76,0.47c1.73,0.31,3.24,0.67,4.54,1.08
			c1.3,0.41,2.38,0.83,3.24,1.26c0.86,0.43,1.49,0.77,1.87,1.01l-3.24,9.07c-1.54-0.82-3.32-1.51-5.36-2.09
			c-2.04-0.58-4.36-0.86-6.95-0.86c-1.73,0-3.42,0.29-5.08,0.86c-1.66,0.58-3.12,1.5-4.39,2.77c-1.27,1.27-2.29,2.92-3.06,4.93
			c-0.77,2.02-1.15,4.46-1.15,7.34c0,2.3,0.25,4.45,0.76,6.44c0.5,1.99,1.32,3.71,2.45,5.15c1.13,1.44,2.6,2.58,4.43,3.42
			c1.82,0.84,4.03,1.26,6.62,1.26c1.63,0,3.1-0.1,4.39-0.29c1.3-0.19,2.45-0.42,3.46-0.68c1.01-0.26,1.9-0.56,2.66-0.9
			c0.77-0.33,1.46-0.65,2.09-0.94l3.1,9c-1.58,0.96-3.82,1.83-6.7,2.59C179,87.91,175.67,88.3,171.88,88.3z"/>
		<path d="M229.62,68.28c0,2.98-0.43,5.7-1.3,8.17c-0.86,2.47-2.11,4.58-3.74,6.34c-1.63,1.75-3.59,3.11-5.87,4.07
			c-2.28,0.96-4.84,1.44-7.67,1.44c-2.78,0-5.32-0.48-7.6-1.44c-2.28-0.96-4.24-2.32-5.87-4.07c-1.63-1.75-2.9-3.86-3.82-6.34
			c-0.91-2.47-1.37-5.2-1.37-8.17c0-2.98,0.47-5.69,1.4-8.14c0.94-2.45,2.23-4.54,3.89-6.26c1.66-1.73,3.62-3.07,5.9-4.03
			c2.28-0.96,4.76-1.44,7.45-1.44c2.74,0,5.24,0.48,7.52,1.44c2.28,0.96,4.24,2.3,5.87,4.03c1.63,1.73,2.9,3.82,3.82,6.26
			C229.16,62.59,229.62,65.3,229.62,68.28z M218.68,68.28c0-3.31-0.66-5.92-1.98-7.81c-1.32-1.9-3.2-2.84-5.65-2.84
			c-2.45,0-4.34,0.95-5.69,2.84c-1.34,1.9-2.02,4.5-2.02,7.81c0,3.31,0.67,5.94,2.02,7.88c1.34,1.94,3.24,2.92,5.69,2.92
			c2.45,0,4.33-0.97,5.65-2.92C218.02,74.22,218.68,71.59,218.68,68.28z"/>
		<path d="M271.31,86.06c-0.96,0.29-2.06,0.56-3.31,0.83c-1.25,0.26-2.56,0.49-3.92,0.68c-1.37,0.19-2.76,0.35-4.18,0.47
			c-1.42,0.12-2.77,0.18-4.07,0.18c-3.12,0-5.9-0.46-8.35-1.37c-2.45-0.91-4.51-2.22-6.19-3.92c-1.68-1.7-2.96-3.77-3.85-6.19
			c-0.89-2.42-1.33-5.15-1.33-8.17c0-3.07,0.38-5.84,1.15-8.32c0.77-2.47,1.87-4.57,3.31-6.3c1.44-1.73,3.2-3.05,5.29-3.96
			c2.09-0.91,4.48-1.37,7.16-1.37c1.49,0,2.82,0.14,4,0.43c1.18,0.29,2.36,0.7,3.56,1.22V33.14l10.73-1.73V86.06z M247.04,68.06
			c0,3.31,0.74,5.98,2.23,7.99c1.49,2.02,3.7,3.02,6.62,3.02c0.96,0,1.85-0.04,2.66-0.11c0.82-0.07,1.49-0.16,2.02-0.25V59.21
			c-0.67-0.43-1.55-0.79-2.63-1.08c-1.08-0.29-2.17-0.43-3.28-0.43C249.59,57.7,247.04,61.15,247.04,68.06z"/>
		<path d="M279.59,68.64c0-3.36,0.52-6.3,1.55-8.82c1.03-2.52,2.39-4.62,4.07-6.3c1.68-1.68,3.61-2.95,5.8-3.82
			c2.18-0.86,4.43-1.3,6.73-1.3c5.38,0,9.62,1.64,12.74,4.93c3.12,3.29,4.68,8.12,4.68,14.51c0,0.62-0.03,1.31-0.07,2.05
			c-0.05,0.74-0.1,1.4-0.14,1.98H290.6c0.24,2.21,1.27,3.96,3.1,5.26c1.82,1.3,4.27,1.94,7.34,1.94c1.97,0,3.9-0.18,5.8-0.54
			c1.9-0.36,3.44-0.8,4.64-1.33l1.44,8.71c-0.58,0.29-1.34,0.58-2.3,0.86c-0.96,0.29-2.03,0.54-3.2,0.76
			c-1.18,0.22-2.44,0.4-3.78,0.54s-2.69,0.22-4.03,0.22c-3.41,0-6.37-0.5-8.89-1.51c-2.52-1.01-4.61-2.39-6.26-4.14
			c-1.66-1.75-2.88-3.83-3.67-6.23C279.98,74.02,279.59,71.42,279.59,68.64z M304.79,64.54c-0.05-0.91-0.21-1.8-0.47-2.66
			c-0.26-0.86-0.67-1.63-1.22-2.3c-0.55-0.67-1.25-1.22-2.09-1.66c-0.84-0.43-1.88-0.65-3.13-0.65c-1.2,0-2.23,0.21-3.1,0.61
			c-0.86,0.41-1.58,0.95-2.16,1.62c-0.58,0.67-1.02,1.45-1.33,2.34c-0.31,0.89-0.54,1.79-0.68,2.7H304.79z"/>
		<path d="M346.91,88.3c-8.11,0-14.29-2.26-18.54-6.77S322,70.61,322,62.3c0-4.13,0.65-7.81,1.94-11.05s3.07-5.98,5.33-8.21
			c2.26-2.23,4.94-3.92,8.06-5.08c3.12-1.15,6.5-1.73,10.15-1.73c2.11,0,4.03,0.16,5.76,0.47c1.73,0.31,3.24,0.67,4.54,1.08
			c1.3,0.41,2.38,0.83,3.24,1.26c0.86,0.43,1.49,0.77,1.87,1.01l-3.24,9.07c-1.54-0.82-3.32-1.51-5.36-2.09
			c-2.04-0.58-4.36-0.86-6.95-0.86c-1.73,0-3.42,0.29-5.08,0.86s-3.12,1.5-4.39,2.77c-1.27,1.27-2.29,2.92-3.06,4.93
			c-0.77,2.02-1.15,4.46-1.15,7.34c0,2.3,0.25,4.45,0.76,6.44c0.5,1.99,1.32,3.71,2.45,5.15c1.13,1.44,2.6,2.58,4.43,3.42
			c1.82,0.84,4.03,1.26,6.62,1.26c1.63,0,3.1-0.1,4.39-0.29c1.3-0.19,2.45-0.42,3.46-0.68c1.01-0.26,1.9-0.56,2.66-0.9
			c0.77-0.33,1.46-0.65,2.09-0.94l3.1,9c-1.58,0.96-3.82,1.83-6.7,2.59C354.04,87.91,350.7,88.3,346.91,88.3z"/>
		<path d="M370.09,87.29V33.14l10.73-1.73v18.14c0.72-0.24,1.64-0.47,2.77-0.68c1.13-0.22,2.22-0.32,3.28-0.32
			c3.07,0,5.63,0.42,7.67,1.26s3.67,2.03,4.9,3.56c1.22,1.54,2.09,3.36,2.59,5.47c0.5,2.11,0.76,4.46,0.76,7.06v21.38h-10.73V67.2
			c0-3.46-0.44-5.9-1.33-7.34c-0.89-1.44-2.53-2.16-4.93-2.16c-0.96,0-1.86,0.08-2.7,0.25c-0.84,0.17-1.6,0.35-2.27,0.54v28.8
			H370.09z"/>
		<path d="M444.83,85.99c-1.83,0.53-4.18,1.02-7.06,1.48c-2.88,0.46-5.9,0.68-9.07,0.68c-3.22,0-5.89-0.43-8.03-1.3
			c-2.14-0.86-3.83-2.08-5.08-3.64c-1.25-1.56-2.14-3.42-2.66-5.58c-0.53-2.16-0.79-4.54-0.79-7.13v-21.1h10.73v19.8
			c0,3.46,0.46,5.95,1.37,7.49c0.91,1.54,2.62,2.3,5.11,2.3c0.77,0,1.58-0.04,2.45-0.11c0.86-0.07,1.63-0.16,2.3-0.25V49.42h10.73
			V85.99z"/>
		<path d="M475.71,67.2c0-3.46-0.44-5.9-1.33-7.34c-0.89-1.44-2.41-2.16-4.57-2.16c-0.67,0-1.37,0.04-2.09,0.11
			c-0.72,0.07-1.42,0.16-2.09,0.25v29.23h-10.73V50.71c0.91-0.24,1.98-0.49,3.2-0.76c1.22-0.26,2.52-0.5,3.89-0.72
			s2.77-0.38,4.21-0.5c1.44-0.12,2.86-0.18,4.25-0.18c2.74,0,4.96,0.35,6.66,1.04c1.7,0.7,3.11,1.52,4.21,2.48
			c1.54-1.1,3.3-1.97,5.29-2.59c1.99-0.62,3.83-0.94,5.51-0.94c3.02,0,5.51,0.42,7.45,1.26c1.94,0.84,3.49,2.03,4.64,3.56
			c1.15,1.54,1.94,3.36,2.38,5.47c0.43,2.11,0.65,4.46,0.65,7.06v21.38h-10.73V67.2c0-3.46-0.44-5.9-1.33-7.34
			c-0.89-1.44-2.41-2.16-4.57-2.16c-0.58,0-1.38,0.14-2.41,0.43s-1.88,0.65-2.56,1.08c0.33,1.1,0.55,2.27,0.65,3.49
			c0.1,1.22,0.14,2.53,0.14,3.92v20.66h-10.73V67.2z"/>
		<path d="M527.84,79.58c1.97,0,3.36-0.19,4.18-0.58c0.82-0.38,1.22-1.13,1.22-2.23c0-0.86-0.53-1.62-1.58-2.27
			c-1.06-0.65-2.66-1.38-4.82-2.2c-1.68-0.62-3.2-1.27-4.57-1.94c-1.37-0.67-2.53-1.48-3.49-2.41c-0.96-0.94-1.7-2.05-2.23-3.35
			c-0.53-1.3-0.79-2.86-0.79-4.68c0-3.55,1.32-6.36,3.96-8.42c2.64-2.06,6.26-3.1,10.87-3.1c2.3,0,4.51,0.21,6.62,0.61
			c2.11,0.41,3.79,0.85,5.04,1.33l-1.87,8.35c-1.25-0.43-2.6-0.82-4.07-1.15c-1.46-0.33-3.11-0.5-4.93-0.5
			c-3.36,0-5.04,0.94-5.04,2.81c0,0.43,0.07,0.82,0.22,1.15c0.14,0.34,0.43,0.66,0.86,0.97c0.43,0.31,1.02,0.65,1.76,1.01
			c0.74,0.36,1.69,0.76,2.84,1.2c2.35,0.87,4.29,1.73,5.83,2.58c1.54,0.85,2.75,1.76,3.64,2.74c0.89,0.98,1.51,2.07,1.87,3.27
			c0.36,1.2,0.54,2.59,0.54,4.17c0,3.74-1.4,6.56-4.21,8.48c-2.81,1.92-6.78,2.87-11.92,2.87c-3.36,0-6.16-0.29-8.39-0.86
			c-2.23-0.58-3.78-1.05-4.64-1.44l1.8-8.71c1.82,0.72,3.7,1.28,5.62,1.69C524.07,79.38,525.97,79.58,527.84,79.58z"/>
	</g>
</g>
<g>
</g>
<g>
</g>
<g>
</g>
<g>
</g>
<g>
</g>
</svg>
